<svg id="Layer_1" enable-background="new 0 0 133 133" viewBox="0 0 133 133" xmlns="http://www.w3.org/2000/svg" xmlns:xlink="http://www.w3.org/1999/xlink"><defs><path id="SVGID_1_" d="m102.661 130.5h-72.322c-15.375 0-27.839-12.464-27.839-27.839v-72.322c0-15.375 12.464-27.839 27.839-27.839h72.322c15.375 0 27.839 12.464 27.839 27.839v72.322c0 15.375-12.464 27.839-27.839 27.839z"/><clipPath id="SVGID_2_"><use xlink:href="#SVGID_1_"/></clipPath></defs><g><use fill="#00b771" xlink:href="#SVGID_1_"/><path clip-path="url(#SVGID_2_)" d="m102.661 130.5h-72.322c-15.375 0-27.839-12.464-27.839-27.839v-72.322c0-15.375 12.464-27.839 27.839-27.839h72.322c15.375 0 27.839 12.464 27.839 27.839v72.322c0 15.375-12.464 27.839-27.839 27.839z" fill="#00b771"/><path clip-path="url(#SVGID_2_)" d="m100.638 84.078v14.512c0 .986-.802 1.783-1.797 1.783h-7.187c-15.835 0-30.724-6.121-41.924-17.234s-17.368-25.886-17.368-41.599v-7.13c0-.987.802-1.783 1.797-1.783h14.398c1.869 0 3.486 1.189 4.013 2.936l3.737 15.463c.144.606-.036 1.26-.491 1.7l-4.684 4.54c-.91.88-1.162 2.223-.635 3.352 1.006 2.115 2.18 4.172 3.498 6.121 1.629 2.389 3.498 4.623 5.546 6.668 2.06 2.032 4.312 3.886 6.72 5.503 1.964 1.308 4.036 2.484 6.181 3.471 1.126.523 2.48.273 3.366-.63l5.366-5.432c.467-.475 1.15-.654 1.797-.464l14.925 4.314c1.64.605 2.742 2.174 2.742 3.909z" fill="#fff"/></g></svg>